<?xml version='1.0' encoding='UTF-8' standalone='no'?>
<!-- Created with Fritzing (http://www.fritzing.org/) -->
<svg xmlns:svg='http://www.w3.org/2000/svg' xmlns='http://www.w3.org/2000/svg' version='1.2' baseProfile='tiny' x='0in' y='0in' width='2.95682in' height='2.53238in' viewBox='0 0 212.891 182.331' >
<g partID='17282160'><g transform='translate(21.0276,123.102)' ><g transform='matrix(0,1,-1,0,0,0)'  ><g xmlns="http://www.w3.org/2000/svg" id="schematic">
<line class="other" xmlns="http://www.w3.org/2000/svg" stroke="#000000" stroke-linecap="round" y1="3.096" x1="7.55002" y2="0.216" stroke-width="0.432002" x2="8.63003"/>
<line class="other" xmlns="http://www.w3.org/2000/svg" stroke="#000000" stroke-linecap="round" y1="0.216" x1="8.63003" y2="5.976" stroke-width="0.432002" x2="10.43"/>
<line class="other" xmlns="http://www.w3.org/2000/svg" stroke="#000000" stroke-linecap="round" y1="5.976" x1="10.43" y2="0.216" stroke-width="0.432002" x2="12.23"/>
<line class="other" xmlns="http://www.w3.org/2000/svg" stroke="#000000" stroke-linecap="round" y1="0.216" x1="12.23" y2="5.976" stroke-width="0.432002" x2="14.03"/>
<line class="other" xmlns="http://www.w3.org/2000/svg" stroke="#000000" stroke-linecap="round" y1="5.976" x1="14.03" y2="0.216" stroke-width="0.432002" x2="15.8301"/>
<line class="other" xmlns="http://www.w3.org/2000/svg" stroke="#000000" stroke-linecap="round" y1="0.216" x1="15.8301" y2="5.976" stroke-width="0.432002" x2="17.6301"/>
<line class="other" xmlns="http://www.w3.org/2000/svg" stroke="#000000" stroke-linecap="round" y1="5.976" x1="17.6301" y2="0.216" stroke-width="0.432002" x2="19.4301"/>
<line class="other" xmlns="http://www.w3.org/2000/svg" stroke="#000000" stroke-linecap="round" y1="0.216" x1="19.4301" y2="5.976" stroke-width="0.432002" x2="21.2301"/>
<line class="other" xmlns="http://www.w3.org/2000/svg" stroke="#000000" stroke-linecap="round" y1="5.976" x1="21.2301" y2="3.096" stroke-width="0.432002" x2="21.9501"/>
<line class="pin" xmlns="http://www.w3.org/2000/svg" connectorname="2" stroke="#787878" id="connector1pin" stroke-linecap="round" y1="3.096" x1="29.1502" y2="3.096" stroke-width="0.700001" x2="21.9501"/>
<g width="0.000283466" x="29.1502" y="3.096" class="terminal" fill="none" xmlns="http://www.w3.org/2000/svg" height="0.000283465" stroke="none" id="connector1terminal" stroke-width="0"/>
<text x="25.5501" y="2.046" class="text" font-family="'Droid Sans'" fill="#8c8c8c" xmlns="http://www.w3.org/2000/svg" text-anchor="middle" stroke="none" stroke-width="0" font-size="2.50001">2</text>
<line class="pin" xmlns="http://www.w3.org/2000/svg" connectorname="1" stroke="#787878" id="connector0pin" stroke-linecap="round" y1="3.096" x1="0.350001" y2="3.096" stroke-width="0.700001" x2="7.55002"/>
<g width="0.000283466" x="0.350001" y="3.096" class="terminal" fill="none" xmlns="http://www.w3.org/2000/svg" height="0.000283465" stroke="none" id="connector0terminal" stroke-width="0"/>
<text x="3.95001" y="2.046" class="text" font-family="'Droid Sans'" fill="#8c8c8c" xmlns="http://www.w3.org/2000/svg" text-anchor="middle" stroke="none" stroke-width="0" font-size="2.50001">1</text>
</g>
</g></g></g><g partID='1321620'><g transform='translate(25.4913,33.1015)' ><g transform='matrix(0,1,-1,0,0,0)'  ><g id="schematic">
<path fill="#FFFFFF" stroke="#000000" stroke-width="0.9" d="M29.15,0.36c3.977,0,7.2,3.223,7.201,7.199c0.001,3.976,-3.223,7.2,-7.199,7.201c0,0,-0.001,0,-0.002,0l-14.4,0c-3.977,0.001,-7.2,-3.223,-7.201,-7.199c0,-3.977,3.223,-7.2,7.199,-7.201c0.001,0,0.001,0,0.002,0L29.15,0.36z"/>
<line fill="none" stroke="#000000" stroke-linecap="round" y1="0.36" stroke-width="0.5" x1="17.63" y2="1.8" x2="17.63"/>
<path fill="none" stroke="#000000" stroke-width="0.5" d="M17.63,1.8c0,0.795,0.646,1.44,1.44,1.44"/>
<line fill="none" stroke="#000000" stroke-linecap="round" y1="3.24" stroke-width="0.5" x1="19.07" y2="3.24" x2="25.55"/>
<path fill="none" stroke="#000000" stroke-width="0.5" d="M25.55,3.24c0.597,0,1.081,0.483,1.081,1.08c0,0.596,-0.483,1.08,-1.08,1.08c0,0,0,0,-0.001,0"/>
<line fill="none" stroke="#000000" stroke-linecap="round" y1="5.4" stroke-width="0.5" x1="18.35" y2="5.4" x2="25.55"/>
<path fill="none" stroke="#000000" stroke-width="0.5" d="M18.35,7.56c-0.597,0,-1.08,-0.483,-1.08,-1.08s0.483,-1.08,1.08,-1.08l0,0"/>
<line fill="none" stroke="#000000" stroke-linecap="round" y1="7.56" stroke-width="0.5" x1="18.35" y2="7.56" x2="25.55"/>
<path fill="none" stroke="#000000" stroke-width="0.5" d="M25.55,7.56c0.597,0,1.081,0.483,1.081,1.079c0.001,0.597,-0.482,1.081,-1.079,1.081c-0.001,0,-0.001,0,-0.002,0"/>
<line fill="none" stroke="#000000" stroke-linecap="round" y1="9.72" stroke-width="0.5" x1="18.35" y2="9.72" x2="25.55"/>
<path fill="none" stroke="#000000" stroke-width="0.5" d="M18.35,11.88c-0.597,0,-1.08,-0.484,-1.08,-1.08c0,-0.597,0.483,-1.08,1.08,-1.08l0,0"/>
<line fill="none" stroke="#000000" stroke-linecap="round" y1="11.88" stroke-width="0.5" x1="18.35" y2="11.88" x2="24.83"/>
<path fill="none" stroke="#000000" stroke-width="0.5" d="M26.27,13.32c0,-0.795,-0.645,-1.439,-1.44,-1.439l0,0"/>
<line fill="none" stroke="#000000" stroke-linecap="round" y1="13.32" stroke-width="0.5" x1="26.27" y2="14.76" x2="26.27"/>
<line fill="none" stroke="#787878" id="connector0pin" stroke-linecap="round" y1="7.56" stroke-width="0.75" x1="0.35" y2="7.56" x2="7.55"/>
<g width="0" x="0.35" y="7.56" fill="none" height="0" id="connector0terminal"/>
<g transform="matrix(1, 0, 0, 1, 3.2615, 6.5103)">
<text fill="#8C8C8C" font-family="'DroidSans'" font-size="2.5">1</text>
</g>
<line fill="none" stroke="#787878" id="connector1pin" stroke-linecap="round" y1="7.56" stroke-width="0.75" x1="43.551" y2="7.56" x2="36.35"/>
<g width="0" x="43.551" y="7.56" fill="none" height="0" id="connector1terminal"/>
<g transform="matrix(1, 0, 0, 1, 39.2615, 6.5103)">
<text fill="#8C8C8C" font-family="'DroidSans'" font-size="2.5">2</text>
</g>
</g>
</g></g></g><g partID='18385850'><g transform='translate(61.1312,15.4518)' ><g id="schematic">
<rect width="78.3" x="14.85" y="14.85" class="interior rect" fill="#FFFFFF" height="135.9" stroke="#000000" stroke-linecap="round" stroke-width="0.9"/>
<line class="pin" fill="none" stroke="#787878" stroke-linecap="round" id="connector61pin" y1="28.8" x1="93.2499" y2="28.8" stroke-width="0.699999" x2="107.65"/>
<text x="91.8499" y="29.4999" class="text" font-family="'Droid Sans'" fill="#8c8c8c" text-anchor="end" stroke="none" stroke-width="0" font-size="3.49999">D0/RX</text>
<g width="0.699999" x="107.65" y="28.4499" class="terminal" fill="none" height="0.699999" stroke="none" id="connector61terminal" stroke-width="0"/>
<line class="pin" fill="none" stroke="#787878" stroke-linecap="round" id="connector62pin" y1="36" x1="93.2499" y2="36" stroke-width="0.699999" x2="107.65"/>
<text x="91.8499" y="36.6999" class="text" font-family="'Droid Sans'" fill="#8c8c8c" text-anchor="end" stroke="none" stroke-width="0" font-size="3.49999">D1/TX</text>
<g width="0.699999" x="107.65" y="35.6499" class="terminal" fill="none" height="0.699999" stroke="none" id="connector62terminal" stroke-width="0"/>
<line class="pin" fill="none" stroke="#787878" stroke-linecap="round" id="connector63pin" y1="43.2" x1="93.2499" y2="43.2" stroke-width="0.699999" x2="107.65"/>
<text x="91.8499" y="43.8999" class="text" font-family="'Droid Sans'" fill="#8c8c8c" text-anchor="end" stroke="none" stroke-width="0" font-size="3.49999">D2</text>
<g width="0.699999" x="107.65" y="42.8499" class="terminal" fill="none" height="0.699999" stroke="none" id="connector63terminal" stroke-width="0"/>
<line class="pin" fill="none" stroke="#787878" stroke-linecap="round" id="connector64pin" y1="50.4" x1="93.2499" y2="50.4" stroke-width="0.699999" x2="107.65"/>
<text x="91.8499" y="51.0999" class="text" font-family="'Droid Sans'" fill="#8c8c8c" text-anchor="end" stroke="none" stroke-width="0" font-size="3.49999">D3 PWM</text>
<g width="0.699999" x="107.65" y="50.0499" class="terminal" fill="none" height="0.699999" stroke="none" id="connector64terminal" stroke-width="0"/>
<line class="pin" fill="none" stroke="#787878" stroke-linecap="round" id="connector65pin" y1="57.6" x1="93.2499" y2="57.6" stroke-width="0.699999" x2="107.65"/>
<text x="91.8499" y="58.2999" class="text" font-family="'Droid Sans'" fill="#8c8c8c" text-anchor="end" stroke="none" stroke-width="0" font-size="3.49999">D4</text>
<g width="0.699999" x="107.65" y="57.2499" class="terminal" fill="none" height="0.699999" stroke="none" id="connector65terminal" stroke-width="0"/>
<line class="pin" fill="none" stroke="#787878" stroke-linecap="round" id="connector66pin" y1="64.8" x1="93.2499" y2="64.8" stroke-width="0.699999" x2="107.65"/>
<text x="91.8499" y="65.4999" class="text" font-family="'Droid Sans'" fill="#8c8c8c" text-anchor="end" stroke="none" stroke-width="0" font-size="3.49999">D5 PWM</text>
<g width="0.699999" x="107.65" y="64.4499" class="terminal" fill="none" height="0.699999" stroke="none" id="connector66terminal" stroke-width="0"/>
<line class="pin" fill="none" stroke="#787878" stroke-linecap="round" id="connector67pin" y1="72" x1="93.2499" y2="72" stroke-width="0.699999" x2="107.65"/>
<text x="91.8499" y="72.6999" class="text" font-family="'Droid Sans'" fill="#8c8c8c" text-anchor="end" stroke="none" stroke-width="0" font-size="3.49999">D6 PWM</text>
<g width="0.699999" x="107.65" y="71.6499" class="terminal" fill="none" height="0.699999" stroke="none" id="connector67terminal" stroke-width="0"/>
<line class="pin" fill="none" stroke="#787878" stroke-linecap="round" id="connector68pin" y1="79.2" x1="93.2499" y2="79.2" stroke-width="0.699999" x2="107.65"/>
<text x="91.8499" y="79.8999" class="text" font-family="'Droid Sans'" fill="#8c8c8c" text-anchor="end" stroke="none" stroke-width="0" font-size="3.49999">D7</text>
<g width="0.699999" x="107.65" y="78.8499" class="terminal" fill="none" height="0.699999" stroke="none" id="connector68terminal" stroke-width="0"/>
<line class="pin" fill="none" stroke="#787878" stroke-linecap="round" id="connector51pin" y1="86.4" x1="93.2499" y2="86.4" stroke-width="0.699999" x2="107.65"/>
<text x="91.8499" y="87.0999" class="text" font-family="'Droid Sans'" fill="#8c8c8c" text-anchor="end" stroke="none" stroke-width="0" font-size="3.49999">D8</text>
<g width="0.699999" x="107.65" y="86.0499" class="terminal" fill="none" height="0.699999" stroke="none" id="connector51terminal" stroke-width="0"/>
<line class="pin" fill="none" stroke="#787878" stroke-linecap="round" id="connector52pin" y1="93.6" x1="93.2499" y2="93.6" stroke-width="0.699999" x2="107.65"/>
<text x="91.8499" y="94.2999" class="text" font-family="'Droid Sans'" fill="#8c8c8c" text-anchor="end" stroke="none" stroke-width="0" font-size="3.49999">D9 PWM</text>
<g width="0.699999" x="107.65" y="93.2499" class="terminal" fill="none" height="0.699999" stroke="none" id="connector52terminal" stroke-width="0"/>
<line class="pin" fill="none" stroke="#787878" stroke-linecap="round" id="connector53pin" y1="100.8" x1="93.2499" y2="100.8" stroke-width="0.699999" x2="107.65"/>
<text x="91.8499" y="101.5" class="text" font-family="'Droid Sans'" fill="#8c8c8c" text-anchor="end" stroke="none" stroke-width="0" font-size="3.49999">D10 PWM/SS</text>
<g width="0.699999" x="107.65" y="100.45" class="terminal" fill="none" height="0.699999" stroke="none" id="connector53terminal" stroke-width="0"/>
<line class="pin" fill="none" stroke="#787878" stroke-linecap="round" id="connector54pin" y1="108" x1="93.2499" y2="108" stroke-width="0.699999" x2="107.65"/>
<text x="91.8499" y="108.7" class="text" font-family="'Droid Sans'" fill="#8c8c8c" text-anchor="end" stroke="none" stroke-width="0" font-size="3.49999">D11 PWM/MOSI</text>
<g width="0.699999" x="107.65" y="107.65" class="terminal" fill="none" height="0.699999" stroke="none" id="connector54terminal" stroke-width="0"/>
<line class="pin" fill="none" stroke="#787878" stroke-linecap="round" id="connector55pin" y1="115.2" x1="93.2499" y2="115.2" stroke-width="0.699999" x2="107.65"/>
<text x="91.8499" y="115.9" class="text" font-family="'Droid Sans'" fill="#8c8c8c" text-anchor="end" stroke="none" stroke-width="0" font-size="3.49999">D12/MISO</text>
<g width="0.699999" x="107.65" y="114.85" class="terminal" fill="none" height="0.699999" stroke="none" id="connector55terminal" stroke-width="0"/>
<line class="pin" fill="none" stroke="none" stroke-linecap="round" id="connector41pin" y1="122.4" x1="93.2499" y2="122.4" stroke-width="0" x2="107.65"/>
<rect width="0.699999" x="107.65" y="122.05" class="terminal" fill="none" height="0.699999" stroke="none" id="connector41terminal" stroke-width="0"/>
<line class="pin" fill="none" stroke="#787878" stroke-linecap="round" id="connector56pin" y1="122.4" x1="93.2499" y2="122.4" stroke-width="0.699999" x2="107.65"/>
<text x="91.8499" y="123.1" class="text" font-family="'Droid Sans'" fill="#8c8c8c" text-anchor="end" stroke="none" stroke-width="0" font-size="3.49999">D13/SCK</text>
<g width="0.699999" x="107.65" y="122.05" class="terminal" fill="none" height="0.699999" stroke="none" id="connector56terminal" stroke-width="0"/>
<line class="pin" fill="none" stroke="none" stroke-linecap="round" id="connector43pin" y1="28.8" x1="0.349999" y2="28.8" stroke-width="0" x2="14.75"/>
<rect width="0.699999" x="-0.349999" y="28.4499" class="terminal" fill="none" height="0.699999" stroke="none" id="connector43terminal" stroke-width="0"/>
<line class="pin" fill="none" stroke="#787878" stroke-linecap="round" id="connector85pin" y1="28.8" x1="0.349999" y2="28.8" stroke-width="0.699999" x2="14.75"/>
<text x="16.15" y="29.4999" class="text" font-family="'Droid Sans'" fill="#8c8c8c" text-anchor="start" stroke="none" stroke-width="0" font-size="3.49999">RESET</text>
<g width="0.699999" x="-0.349999" y="28.4499" class="terminal" fill="none" height="0.699999" stroke="none" id="connector85terminal" stroke-width="0"/>
<line class="pin" fill="none" stroke="#787878" stroke-linecap="round" id="connector49pin" y1="36" x1="0.349999" y2="36" stroke-width="0.699999" x2="14.75"/>
<text x="16.15" y="36.6999" class="text" font-family="'Droid Sans'" fill="#8c8c8c" text-anchor="start" stroke="none" stroke-width="0" font-size="3.49999">RESET2</text>
<rect width="0.699999" x="-0.349999" y="35.6499" class="terminal" fill="none" height="0.699999" stroke="none" id="connector49terminal" stroke-width="0"/>
<line class="pin" fill="none" stroke="#787878" stroke-linecap="round" id="connector58pin" y1="43.2" x1="0.349999" y2="43.2" stroke-width="0.699999" x2="14.75"/>
<text x="16.15" y="43.8999" class="text" font-family="'Droid Sans'" fill="#8c8c8c" text-anchor="start" stroke="none" stroke-width="0" font-size="3.49999">AREF</text>
<g width="0.699999" x="-0.349999" y="42.8499" class="terminal" fill="none" height="0.699999" stroke="none" id="connector58terminal" stroke-width="0"/>
<line class="pin" fill="none" stroke="#787878" stroke-linecap="round" id="connector84pin" y1="50.4" x1="0.349999" y2="50.4" stroke-width="0.699999" x2="14.75"/>
<text x="16.15" y="51.0999" class="text" font-family="'Droid Sans'" fill="#8c8c8c" text-anchor="start" stroke="none" stroke-width="0" font-size="3.49999">ioref</text>
<g width="0.699999" x="-0.349999" y="50.0499" class="terminal" fill="none" height="0.699999" stroke="none" id="connector84terminal" stroke-width="0"/>
<line class="pin" fill="none" stroke="#787878" stroke-linecap="round" id="connector0pin" y1="64.8" x1="0.349999" y2="64.8" stroke-width="0.699999" x2="14.75"/>
<text x="16.15" y="65.4999" class="text" font-family="'Droid Sans'" fill="#8c8c8c" text-anchor="start" stroke="none" stroke-width="0" font-size="3.49999">A0</text>
<g width="0.699999" x="-0.349999" y="64.4499" class="terminal" fill="none" height="0.699999" stroke="none" id="connector0terminal" stroke-width="0"/>
<line class="pin" fill="none" stroke="#787878" stroke-linecap="round" id="connector1pin" y1="72" x1="0.349999" y2="72" stroke-width="0.699999" x2="14.75"/>
<text x="16.15" y="72.6999" class="text" font-family="'Droid Sans'" fill="#8c8c8c" text-anchor="start" stroke="none" stroke-width="0" font-size="3.49999">A1</text>
<g width="0.699999" x="-0.349999" y="71.6499" class="terminal" fill="none" height="0.699999" stroke="none" id="connector1terminal" stroke-width="0"/>
<line class="pin" fill="none" stroke="#787878" stroke-linecap="round" id="connector2pin" y1="79.2" x1="0.349999" y2="79.2" stroke-width="0.699999" x2="14.75"/>
<text x="16.15" y="79.8999" class="text" font-family="'Droid Sans'" fill="#8c8c8c" text-anchor="start" stroke="none" stroke-width="0" font-size="3.49999">A2</text>
<g width="0.699999" x="-0.349999" y="78.8499" class="terminal" fill="none" height="0.699999" stroke="none" id="connector2terminal" stroke-width="0"/>
<line class="pin" fill="none" stroke="#787878" stroke-linecap="round" id="connector3pin" y1="86.4" x1="0.349999" y2="86.4" stroke-width="0.699999" x2="14.75"/>
<text x="16.15" y="87.0999" class="text" font-family="'Droid Sans'" fill="#8c8c8c" text-anchor="start" stroke="none" stroke-width="0" font-size="3.49999">A3</text>
<g width="0.699999" x="-0.349999" y="86.0499" class="terminal" fill="none" height="0.699999" stroke="none" id="connector3terminal" stroke-width="0"/>
<line class="pin" fill="none" stroke="none" stroke-linecap="round" id="connector48pin" y1="93.6" x1="0.349999" y2="93.6" stroke-width="0" x2="14.75"/>
<rect width="0.699999" x="-0.349999" y="93.2499" class="terminal" fill="none" height="0.699999" stroke="none" id="connector48terminal" stroke-width="0"/>
<line class="pin" fill="none" stroke="none" stroke-linecap="round" id="connector45pin" y1="93.6" x1="0.349999" y2="93.6" stroke-width="0" x2="14.75"/>
<rect width="0.699999" x="-0.349999" y="93.2499" class="terminal" fill="none" height="0.699999" stroke="none" id="connector45terminal" stroke-width="0"/>
<line class="pin" fill="none" stroke="none" stroke-linecap="round" id="connector4pin" y1="93.6" x1="0.349999" y2="93.6" stroke-width="0" x2="14.75"/>
<g width="0.699999" x="-0.349999" y="93.2499" class="terminal" fill="none" height="0.699999" stroke="none" id="connector4terminal" stroke-width="0"/>
<line class="pin" fill="none" stroke="none" stroke-linecap="round" id="connector39pin" y1="93.6" x1="0.349999" y2="93.6" stroke-width="0" x2="14.75"/>
<rect width="0.699999" x="-0.349999" y="93.2499" class="terminal" fill="none" height="0.699999" stroke="none" id="connector39terminal" stroke-width="0"/>
<line class="pin" fill="none" stroke="none" stroke-linecap="round" id="connector47pin" y1="93.6" x1="0.349999" y2="93.6" stroke-width="0" x2="14.75"/>
<rect width="0.699999" x="-0.349999" y="93.2499" class="terminal" fill="none" height="0.699999" stroke="none" id="connector47terminal" stroke-width="0"/>
<line class="pin" fill="none" stroke="none" stroke-linecap="round" id="connector42pin" y1="93.6" x1="0.349999" y2="93.6" stroke-width="0" x2="14.75"/>
<rect width="0.699999" x="-0.349999" y="93.2499" class="terminal" fill="none" height="0.699999" stroke="none" id="connector42terminal" stroke-width="0"/>
<line class="pin" fill="none" stroke="#787878" stroke-linecap="round" id="connector59pin" y1="93.6" x1="0.349999" y2="93.6" stroke-width="0.699999" x2="14.75"/>
<text x="16.15" y="94.2999" class="text" font-family="'Droid Sans'" fill="#8c8c8c" text-anchor="start" stroke="none" stroke-width="0" font-size="3.49999">A4/SDA</text>
<g width="0.699999" x="-0.349999" y="93.2499" class="terminal" fill="none" height="0.699999" stroke="none" id="connector59terminal" stroke-width="0"/>
<line class="pin" fill="none" stroke="none" stroke-linecap="round" id="connector5pin" y1="100.8" x1="0.349999" y2="100.8" stroke-width="0" x2="14.75"/>
<g width="0.699999" x="-0.349999" y="100.45" class="terminal" fill="none" height="0.699999" stroke="none" id="connector5terminal" stroke-width="0"/>
<line class="pin" fill="none" stroke="#787878" stroke-linecap="round" id="connector60pin" y1="100.8" x1="0.349999" y2="100.8" stroke-width="0.699999" x2="14.75"/>
<text x="16.15" y="101.5" class="text" font-family="'Droid Sans'" fill="#8c8c8c" text-anchor="start" stroke="none" stroke-width="0" font-size="3.49999">A5/SCL</text>
<g width="0.699999" x="-0.349999" y="100.45" class="terminal" fill="none" height="0.699999" stroke="none" id="connector60terminal" stroke-width="0"/>
<line class="pin" fill="none" stroke="#787878" stroke-linecap="round" id="connector91pin" y1="136.8" x1="0.349999" y2="136.8" stroke-width="0.699999" x2="14.75"/>
<text x="16.15" y="137.5" class="text" font-family="'Droid Sans'" fill="#8c8c8c" text-anchor="start" stroke="none" stroke-width="0" font-size="3.49999">N/C</text>
<g width="0.699999" x="-0.349999" y="136.45" class="terminal" fill="none" height="0.699999" stroke="none" id="connector91terminal" stroke-width="0"/>
<line class="pin" fill="none" stroke="none" stroke-linecap="round" id="connector88pin" y1="150.85" x1="57.6" y2="165.25" stroke-width="0" x2="57.6"/>
<g width="0.699999" x="57.2499" y="165.25" class="terminal" fill="none" height="0.699999" stroke="none" id="connector88terminal" stroke-width="0"/>
<line class="pin" fill="none" stroke="none" stroke-linecap="round" id="connector57pin" y1="150.85" x1="57.6" y2="165.25" stroke-width="0" x2="57.6"/>
<g width="0.699999" x="57.2499" y="165.25" class="terminal" fill="none" height="0.699999" stroke="none" id="connector57terminal" stroke-width="0"/>
<line class="pin" fill="none" stroke="none" stroke-linecap="round" id="connector44pin" y1="150.85" x1="57.6" y2="165.25" stroke-width="0" x2="57.6"/>
<rect width="0.699999" x="57.2499" y="165.25" class="terminal" fill="none" height="0.699999" stroke="none" id="connector44terminal" stroke-width="0"/>
<line class="pin" fill="none" stroke="none" stroke-linecap="round" id="connector50pin" y1="150.85" x1="57.6" y2="165.25" stroke-width="0" x2="57.6"/>
<rect width="0.699999" x="57.2499" y="165.25" class="terminal" fill="none" height="0.699999" stroke="none" id="connector50terminal" stroke-width="0"/>
<line class="pin" fill="none" stroke="#787878" stroke-linecap="round" id="connector89pin" y1="150.85" x1="57.6" y2="165.25" stroke-width="0.699999" x2="57.6"/>
<g transform="matrix(1, 0, 0, 1, 58.2999, 149.45)">
<g>
<g transform="rotate(270)">
<g>
<text x="0" y="0" class="text" font-family="'Droid Sans'" fill="#8c8c8c" text-anchor="start" stroke="none" stroke-width="0" font-size="3.49999">GND</text>
</g>
</g>
</g>
</g>
<g width="0.699999" x="57.2499" y="165.25" class="terminal" fill="none" height="0.699999" stroke="none" id="connector89terminal" stroke-width="0"/>
<line class="pin" fill="none" stroke="#787878" stroke-linecap="round" id="connector86pin" y1="0.349999" x1="36" y2="14.75" stroke-width="0.699999" x2="36"/>
<g transform="matrix(1, 0, 0, 1, 36.6999, 16.15)">
<g>
<g transform="rotate(270)">
<g>
<text x="0" y="0" class="text" font-family="'Droid Sans'" fill="#8c8c8c" text-anchor="end" stroke="none" stroke-width="0" font-size="3.49999">3V3</text>
</g>
</g>
</g>
</g>
<g width="0.699999" x="35.6499" y="-0.349999" class="terminal" fill="none" height="0.699999" stroke="none" id="connector86terminal" stroke-width="0"/>
<line class="pin" fill="none" stroke="none" stroke-linecap="round" id="connector40pin" y1="0.349999" x1="50.4" y2="14.75" stroke-width="0" x2="50.4"/>
<rect width="0.699999" x="50.0499" y="-0.349999" class="terminal" fill="none" height="0.699999" stroke="none" id="connector40terminal" stroke-width="0"/>
<line class="pin" fill="none" stroke="none" stroke-linecap="round" id="connector46pin" y1="0.349999" x1="50.4" y2="14.75" stroke-width="0" x2="50.4"/>
<rect width="0.699999" x="50.0499" y="-0.349999" class="terminal" fill="none" height="0.699999" stroke="none" id="connector46terminal" stroke-width="0"/>
<line class="pin" fill="none" stroke="#787878" stroke-linecap="round" id="connector87pin" y1="0.349999" x1="50.4" y2="14.75" stroke-width="0.699999" x2="50.4"/>
<g transform="matrix(1, 0, 0, 1, 51.0999, 16.15)">
<g>
<g transform="rotate(270)">
<g>
<text x="0" y="0" class="text" font-family="'Droid Sans'" fill="#8c8c8c" text-anchor="end" stroke="none" stroke-width="0" font-size="3.49999">5V</text>
</g>
</g>
</g>
</g>
<g width="0.699999" x="50.0499" y="-0.349999" class="terminal" fill="none" height="0.699999" stroke="none" id="connector87terminal" stroke-width="0"/>
<line class="pin" fill="none" stroke="#787878" stroke-linecap="round" id="connector90pin" y1="0.349999" x1="64.8" y2="14.75" stroke-width="0.699999" x2="64.8"/>
<g transform="matrix(1, 0, 0, 1, 65.4999, 16.15)">
<g>
<g transform="rotate(270)">
<g>
<text x="0" y="0" class="text" font-family="'Droid Sans'" fill="#8c8c8c" text-anchor="end" stroke="none" stroke-width="0" font-size="3.49999">VIN</text>
</g>
</g>
</g>
</g>
<g width="0.699999" x="64.4499" y="-0.349999" class="terminal" fill="none" height="0.699999" stroke="none" id="connector90terminal" stroke-width="0"/>
<text x="54.4501" y="76.4498" class="text" font-family="'Droid Sans'" fill="#000000" text-anchor="middle" stroke="none" id="label" stroke-width="0" font-size="4.25001">Arduino</text>
<text x="54.4501" y="80.9833" class="text" font-family="'Droid Sans'" fill="#000000" text-anchor="middle" stroke="none" id="label" stroke-width="0" font-size="4.25001">Uno</text>
<text x="54.4501" y="85.5167" class="text" font-family="'Droid Sans'" fill="#000000" text-anchor="middle" stroke="none" id="label" stroke-width="0" font-size="4.25001">(Rev3)</text>
</g>
</g></g><g partID='18703370'><g transform='translate(207.291,147.212)' ><g transform='matrix(0,-1,-1,0,0,0)'  ><g id="schematic">
<polygon fill="#FFFFFF" points="2.16,2.16,0.36,2.16,0.36,0.36,25.56,0.36,25.56,2.16,23.76,2.16,23.76,12.96,2.16,12.96" stroke="#000000" stroke-linejoin="round" stroke-linecap="round" stroke-width="0.9"/>
<line fill="none" stroke="#000000" stroke-linecap="round" y1="7.56" stroke-width="0.5" x1="5.76" y2="7.56" x2="9.36"/>
<line fill="none" stroke="#000000" stroke-linecap="round" y1="7.56" stroke-width="0.5" x1="9.36" y2="5.76" x2="9.36"/>
<line fill="none" stroke="#000000" stroke-linecap="round" y1="7.56" stroke-width="0.5" x1="9.36" y2="9.36" x2="9.36"/>
<line fill="none" stroke="#000000" stroke-linecap="round" y1="3.96" stroke-width="0.5" x1="11.16" y2="11.16" x2="11.16"/>
<line fill="none" stroke="#000000" stroke-linecap="round" y1="11.16" stroke-width="0.5" x1="11.16" y2="11.16" x2="14.76"/>
<line fill="none" stroke="#000000" stroke-linecap="round" y1="11.16" stroke-width="0.5" x1="14.76" y2="3.96" x2="14.76"/>
<line fill="none" stroke="#000000" stroke-linecap="round" y1="3.96" stroke-width="0.5" x1="14.76" y2="3.96" x2="11.16"/>
<line fill="none" stroke="#000000" stroke-linecap="round" y1="5.76" stroke-width="0.5" x1="16.56" y2="7.56" x2="16.56"/>
<line fill="none" stroke="#000000" stroke-linecap="round" y1="7.56" stroke-width="0.5" x1="16.56" y2="7.56" x2="20.16"/>
<line fill="none" stroke="#000000" stroke-linecap="round" y1="7.56" stroke-width="0.5" x1="16.56" y2="9.36" x2="16.56"/>
<line fill="none" stroke="#000000" stroke-linecap="round" y1="2.16" stroke-width="0.9" x1="2.16" y2="2.16" x2="23.76"/>
<line fill="none" stroke="#787878" id="connector1pin" stroke-linecap="round" y1="20.16" stroke-width="0.75" x1="16.56" y2="12.96" x2="16.56"/>
<g fill="none" points="16.56,20.16,16.56,20.16,16.56,20.16" id="connector1terminal"/>
<g transform="matrix(1, 0, 0, 1, 5.47158, 5.842)">
<g>
<g transform="rotate(270)">
<g>
<g transform="matrix(1, 0, 0, 1, -11.4063, 10.0382)">
<text fill="#8C8C8C" font-family="'DroidSans'" font-size="2.5">2</text>
</g>
</g>
</g>
</g>
</g>
<line fill="none" stroke="#787878" id="connector0pin" stroke-linecap="round" y1="20.16" stroke-width="0.75" x1="9.36" y2="12.96" x2="9.36"/>
<g fill="none" points="9.36,20.16,9.36,20.16,9.36,20.16" id="connector0terminal"/>
<g transform="matrix(1, 0, 0, 1, 2.93158, 5.842)">
<g>
<g transform="rotate(270)">
<g>
<g transform="matrix(1, 0, 0, 1, -11.4063, 5.379)">
<text fill="#8C8C8C" font-family="'DroidSans'" font-size="2.5">1</text>
</g>
</g>
</g>
</g>
</g>
</g>
</g></g></g><g partID='18386410'><line stroke-linecap='round' stroke='#404040' x1='18.0528' y1='181.279' x2='17.9315' y2='152.252' stroke-width='0.699998' /></g><g partID='18386420'><line stroke-linecap='round' stroke='#404040' x1='118.731' y1='181.052' x2='18.0528' y2='181.279' stroke-width='0.699998' /></g><circle  fill="black" cx="118.731" cy="181.052" r="1.44" stroke-width="0" stroke="none" /><g partID='17283750'><line stroke-linecap='round' stroke='#ff7300' x1='18.0528' y1='95.0118' x2='61.1312' y2='94.6517' stroke-width='0.699998' /></g><circle  fill="black" cx="18.0528" cy="95.0118" r="1.44" stroke-width="0" stroke="none" /><g partID='17283640'><line stroke-linecap='round' stroke='#ff7300' x1='17.9312' y1='73.0526' x2='18.0528' y2='95.0121' stroke-width='0.699998' /></g><g partID='17283900'><line stroke-linecap='round' stroke='#ff7300' x1='18.0528' y1='95.0118' x2='17.9315' y2='123.452' stroke-width='0.699998' /></g><g partID='1297320'><line stroke-linecap='round' stroke='#cc1414' x1='18.0528' y1='1.35142' x2='111.531' y2='1.05185' stroke-width='0.699998' /></g><g partID='1297300'><line stroke-linecap='round' stroke='#cc1414' x1='111.531' y1='1.05182' x2='111.531' y2='15.4518' stroke-width='0.699998' /></g><g partID='1297280'><line stroke-linecap='round' stroke='#cc1414' x1='17.9312' y1='37.0518' x2='18.0528' y2='1.35142' stroke-width='0.699998' /></g><g partID='18703630'><line stroke-linecap='round' stroke='#cc1414' x1='183.639' y1='101.774' x2='169.131' y2='101.852' stroke-width='0.699998' /></g><g partID='18703830'><line stroke-linecap='round' stroke='#cc1414' x1='190.674' y1='101.791' x2='183.639' y2='101.774' stroke-width='0.699998' /></g><g partID='18703640'><line stroke-linecap='round' stroke='#cc1414' x1='190.731' y1='130.652' x2='190.674' y2='101.791' stroke-width='0.699998' /></g><g partID='18703770'><line stroke-linecap='round' stroke='#404040' x1='190.674' y1='181.068' x2='190.731' y2='137.852' stroke-width='0.699998' /></g><g partID='18703780'><line stroke-linecap='round' stroke='#404040' x1='118.731' y1='181.052' x2='190.674' y2='181.068' stroke-width='0.699998' /></g><circle  fill="black" cx="118.731" cy="181.052" r="1.44" stroke-width="0" stroke="none" /><g partID='18703370' id='partLabel'><g transform='translate(212.891,147.212)' ><g transform='matrix(0,1,-1,0,0,0)'  ><g font-size='5' font-style='normal' font-weight='normal' fill='#000000' font-family="'DroidSans'" id='schematicLabel' fill-opacity='1' stroke='none' ><text x='0' y='3.75'>Piezo</text></g></g></g></g><g partID='17282160' id='partLabel'><g transform='translate(0,126.625)' ><g font-size='5' font-style='normal' font-weight='normal' fill='#000000' font-family="'DroidSans'" id='schematicLabel' fill-opacity='1' stroke='none' ><text x='0' y='3.75'>R&#xe9;sistance</text><text x='0' y='8.75'>10k&#x3a9;</text></g></g></g></svg>